<svg width="8" height="5" viewBox="0 0 8 5" fill="none" xmlns="http://www.w3.org/2000/svg">
<path d="M4.60009 4.32332C4.60447 4.31852 4.60622 4.31212 4.61059 4.30732L7.66501 1.22164C7.83562 1.04803 7.83562 0.766422 7.66501 0.592817C7.66326 0.591217 7.66151 0.590417 7.65976 0.589617C7.6218 0.54758 7.57426 0.51363 7.52046 0.490139C7.46666 0.466647 7.4079 0.454182 7.34828 0.453613H1.23858C1.17787 0.45451 1.11811 0.467585 1.06353 0.491915C1.00896 0.516245 0.960888 0.551237 0.922722 0.594417L0.920973 0.592817C0.838405 0.680168 0.792969 0.79177 0.792969 0.907226C0.792969 1.02268 0.838405 1.13428 0.920973 1.22164L3.98239 4.32332C4.0205 4.36417 4.06785 4.39698 4.12117 4.41947C4.17449 4.44196 4.23252 4.45361 4.29124 4.45361C4.34996 4.45361 4.40799 4.44196 4.46131 4.41947C4.51463 4.39698 4.56198 4.36417 4.60009 4.32332Z" fill="white"/>
</svg>
