<svg width="18" height="16" viewBox="0 0 18 16" fill="none" xmlns="http://www.w3.org/2000/svg">
<path d="M16.9333 7.42089H14.0207C13.8902 6.93018 13.6053 6.49698 13.21 6.18813C12.8147 5.87928 12.3309 5.71195 11.8333 5.71195C11.3357 5.71195 10.852 5.87928 10.4567 6.18813C10.0614 6.49698 9.77649 6.93018 9.646 7.42089H1.06667C0.916377 7.42089 0.772243 7.48191 0.665973 7.59051C0.559702 7.69911 0.5 7.84641 0.5 8C0.5 8.15359 0.559702 8.30089 0.665973 8.40949C0.772243 8.51809 0.916377 8.57911 1.06667 8.57911H9.646C9.77649 9.06982 10.0614 9.50302 10.4567 9.81187C10.852 10.1207 11.3357 10.288 11.8333 10.288C12.3309 10.288 12.8147 10.1207 13.21 9.81187C13.6053 9.50302 13.8902 9.06982 14.0207 8.57911H16.9333C17.0836 8.57911 17.2278 8.51809 17.334 8.40949C17.4403 8.30089 17.5 8.15359 17.5 8C17.5 7.84641 17.4403 7.69911 17.334 7.59051C17.2278 7.48191 17.0836 7.42089 16.9333 7.42089ZM11.8333 9.15821C11.6092 9.15821 11.3901 9.09028 11.2037 8.96302C11.0173 8.83575 10.872 8.65486 10.7863 8.44323C10.7005 8.23159 10.678 7.99872 10.7218 7.77404C10.7655 7.54937 10.8734 7.343 11.0319 7.18102C11.1904 7.01904 11.3924 6.90873 11.6122 6.86404C11.8321 6.81935 12.06 6.84229 12.267 6.92995C12.4741 7.01761 12.6511 7.16607 12.7757 7.35653C12.9002 7.547 12.9667 7.77093 12.9667 8C12.9667 8.30718 12.8473 8.60177 12.6347 8.81898C12.4222 9.03619 12.1339 9.15821 11.8333 9.15821ZM1.06667 3.36715H2.846C2.97649 3.85787 3.26137 4.29107 3.65667 4.59992C4.05198 4.90876 4.53574 5.07609 5.03333 5.07609C5.53093 5.07609 6.01469 4.90876 6.41 4.59992C6.8053 4.29107 7.09017 3.85787 7.22067 3.36715H16.9333C17.0836 3.36715 17.2278 3.30614 17.334 3.19754C17.4403 3.08893 17.5 2.94164 17.5 2.78805C17.5 2.63446 17.4403 2.48716 17.334 2.37856C17.2278 2.26995 17.0836 2.20894 16.9333 2.20894H7.22067C7.09017 1.71822 6.8053 1.28503 6.41 0.976179C6.01469 0.667332 5.53093 0.5 5.03333 0.5C4.53574 0.5 4.05198 0.667332 3.65667 0.976179C3.26137 1.28503 2.97649 1.71822 2.846 2.20894H1.06667C0.916377 2.20894 0.772243 2.26995 0.665973 2.37856C0.559702 2.48716 0.5 2.63446 0.5 2.78805C0.5 2.94164 0.559702 3.08893 0.665973 3.19754C0.772243 3.30614 0.916377 3.36715 1.06667 3.36715ZM5.03333 1.62984C5.25749 1.62984 5.4766 1.69776 5.66298 1.82503C5.84936 1.9523 5.99462 2.13318 6.0804 2.34482C6.16618 2.55645 6.18862 2.78933 6.14489 3.014C6.10116 3.23867 5.99322 3.44505 5.83472 3.60703C5.67622 3.76901 5.47428 3.87931 5.25444 3.924C5.03459 3.96869 4.80672 3.94576 4.59963 3.8581C4.39254 3.77043 4.21553 3.62198 4.091 3.43152C3.96647 3.24105 3.9 3.01712 3.9 2.78805C3.9 2.48087 4.0194 2.18627 4.23195 1.96907C4.44449 1.75186 4.73275 1.62984 5.03333 1.62984ZM16.9333 12.6328H7.22067C7.09017 12.1421 6.8053 11.7089 6.41 11.4001C6.01469 11.0912 5.53093 10.9239 5.03333 10.9239C4.53574 10.9239 4.05198 11.0912 3.65667 11.4001C3.26137 11.7089 2.97649 12.1421 2.846 12.6328H1.06667C0.916377 12.6328 0.772243 12.6939 0.665973 12.8025C0.559702 12.9111 0.5 13.0584 0.5 13.212C0.5 13.3655 0.559702 13.5128 0.665973 13.6214C0.772243 13.73 0.916377 13.7911 1.06667 13.7911H2.846C2.97649 14.2818 3.26137 14.715 3.65667 15.0238C4.05198 15.3327 4.53574 15.5 5.03333 15.5C5.53093 15.5 6.01469 15.3327 6.41 15.0238C6.8053 14.715 7.09017 14.2818 7.22067 13.7911H16.9333C17.0836 13.7911 17.2278 13.73 17.334 13.6214C17.4403 13.5128 17.5 13.3655 17.5 13.212C17.5 13.0584 17.4403 12.9111 17.334 12.8025C17.2278 12.6939 17.0836 12.6328 16.9333 12.6328ZM5.03333 14.3702C4.80918 14.3702 4.59006 14.3022 4.40369 14.175C4.21731 14.0477 4.07205 13.8668 3.98627 13.6552C3.90049 13.4435 3.87805 13.2107 3.92178 12.986C3.96551 12.7613 4.07345 12.555 4.23195 12.393C4.39044 12.231 4.59239 12.1207 4.81223 12.076C5.03208 12.0313 5.25995 12.0542 5.46704 12.1419C5.67413 12.2296 5.85113 12.378 5.97567 12.5685C6.1002 12.759 6.16667 12.9829 6.16667 13.212C6.16667 13.5191 6.04726 13.8137 5.83472 14.0309C5.62218 14.2481 5.33391 14.3702 5.03333 14.3702Z" fill="#4B4B4B"/>
</svg>
