<svg width="7" height="10" viewBox="0 0 7 10" fill="none" xmlns="http://www.w3.org/2000/svg">
<path d="M0.263878 4.98853C0.271127 4.99409 0.280746 4.99626 0.287995 5.00182L4.95052 8.8885C5.21283 9.10559 5.63522 9.10191 5.89371 8.8803C5.89609 8.87803 5.89727 8.87577 5.89845 8.87351C5.96108 8.82415 6.01147 8.76259 6.04611 8.69311C6.08074 8.62364 6.09878 8.54793 6.09897 8.47127L6.03062 0.616237C6.0286 0.538195 6.00831 0.461542 5.97121 0.391691C5.93411 0.32184 5.88108 0.260497 5.81589 0.211993L5.81827 0.209722C5.68632 0.104707 5.51842 0.0477484 5.34524 0.0492552C5.17206 0.0507621 5.00518 0.110634 4.87508 0.217929L0.256968 4.19437C0.196122 4.2439 0.147449 4.3052 0.114306 4.37405C0.0811626 4.4429 0.0643397 4.51765 0.0649966 4.59315C0.0656535 4.66865 0.0837747 4.74309 0.118111 4.81135C0.152447 4.87962 0.202179 4.94006 0.263878 4.98853Z" fill="black"/>
</svg>
